<?xml version="1.0" encoding="iso-8859-1"?>
<!-- Generator: Adobe Illustrator 19.1.0, SVG Export Plug-In . SVG Version: 6.00 Build 0)  -->
<svg version="1.1" id="Capa_1" xmlns="http://www.w3.org/2000/svg" xmlns:xlink="http://www.w3.org/1999/xlink" x="0px" y="0px"
	 viewBox="0 0 65.427 65.427" style="enable-background:new 0 0 65.427 65.427;" xml:space="preserve">
<g>
	<g id="group-8svg">
		<path id="path-1_48_" style="fill:#EDC951;" d="M65.427,35.317c0,16.371-13.274,29.643-29.648,29.643
			c-16.373,0-29.646-13.272-29.646-29.643c0-16.372,13.273-29.644,29.646-29.644C52.153,5.673,65.427,18.945,65.427,35.317z"/>
		<path id="path-2_48_" d="M18.845,48.306c-0.828,0-1.5-0.671-1.5-1.499c0-6.817,5.63-12.575,12.296-12.575h5.398
			c6.78,0,12.296,5.578,12.296,12.434c0,0.829-0.672,1.5-1.5,1.5c-0.828,0-1.5-0.671-1.5-1.5c0-5.202-4.17-9.435-9.296-9.435h-5.398
			c-5.04,0-9.296,4.385-9.296,9.576C20.345,47.636,19.673,48.306,18.845,48.306z"/>
		<path id="path-3_48_" d="M25.296,23.116c-0.248,0-0.499-0.062-0.729-0.189l-2.309-1.286c-1.132-0.209-2.326,0.097-3.156,0.926
			c-0.586,0.586-1.536,0.586-2.122,0c-0.586-0.585-0.586-1.535,0-2.121c0.401-0.4,0.846-0.735,1.324-1.006l-0.993-0.552
			c-0.723-0.403-0.984-1.316-0.581-2.04c0.403-0.724,1.319-0.986,2.04-0.581l4.624,2.574c1.091,0.299,2.12,0.871,2.963,1.715
			c0.53,0.528,0.588,1.367,0.137,1.964C26.202,22.907,25.753,23.116,25.296,23.116z"/>
		<path id="path-4_48_" d="M38.446,23.116c-0.457,0-0.906-0.209-1.198-0.596c-0.451-0.597-0.393-1.436,0.137-1.964
			c0.842-0.843,1.872-1.416,2.963-1.715l4.624-2.574c0.72-0.403,1.636-0.144,2.04,0.581c0.403,0.724,0.142,1.637-0.581,2.04
			l-0.993,0.552c0.478,0.271,0.923,0.606,1.324,1.006c0.586,0.586,0.586,1.536,0,2.121c-0.586,0.586-1.536,0.586-2.121,0
			c-0.83-0.829-2.024-1.137-3.157-0.926l-2.309,1.286C38.945,23.054,38.694,23.116,38.446,23.116z"/>
		<path id="path-5_48_" d="M31.147,62.754C13.973,62.754,0,48.783,0,31.611S13.973,0.468,31.147,0.468s31.147,13.971,31.147,31.143
			S48.321,62.754,31.147,62.754z M31.147,3.468C15.627,3.468,3,16.092,3,31.611s12.627,28.144,28.147,28.144
			c15.521,0,28.147-12.625,28.147-28.144S46.668,3.468,31.147,3.468z"/>
	</g>
</g>
<g>
</g>
<g>
</g>
<g>
</g>
<g>
</g>
<g>
</g>
<g>
</g>
<g>
</g>
<g>
</g>
<g>
</g>
<g>
</g>
<g>
</g>
<g>
</g>
<g>
</g>
<g>
</g>
<g>
</g>
</svg>
