<?xml version="1.0" encoding="iso-8859-1"?>
<!-- Generator: Adobe Illustrator 19.1.0, SVG Export Plug-In . SVG Version: 6.00 Build 0)  -->
<svg version="1.1" id="Capa_1" xmlns="http://www.w3.org/2000/svg" xmlns:xlink="http://www.w3.org/1999/xlink" x="0px" y="0px"
	 viewBox="0 0 67.32 67.32" style="enable-background:new 0 0 67.32 67.32;" xml:space="preserve">
<g>
	<g id="group-36svg">
		<path id="path-1_28_" style="fill:#EDC951;" d="M67.32,35.821c0,16.616-13.471,30.085-30.089,30.085S7.141,52.437,7.141,35.821
			S20.613,5.735,37.231,5.735S67.32,19.205,67.32,35.821z"/>
		<path id="path-2_28_" style="fill:#E56A77;" d="M52.896,22.015c-0.948,0-1.819,1.176-2.525,1.701
			c-0.705-0.525-1.577-1.701-2.524-1.701c-2.34,0-4.238,1.897-4.238,4.237s6.057,9.249,6.762,8.724
			c0.706,0.525,6.762-6.384,6.762-8.724S55.236,22.015,52.896,22.015z"/>
		<path id="path-3_28_" style="fill:#E56A77;" d="M28.807,22.015c-0.947,0-1.819,1.176-2.525,1.701
			c-0.705-0.525-1.577-1.701-2.524-1.701c-2.34,0-4.237,1.897-4.237,4.237s6.056,9.249,6.761,8.724
			c0.706,0.525,6.762-6.384,6.762-8.724S31.147,22.015,28.807,22.015z"/>
		<path id="path-4_28_" d="M34.373,52.227h-5.055c-6.511,0-11.611-5.001-11.611-11.386c0-0.829,0.671-1.5,1.5-1.5
			c0.828,0,1.5,0.671,1.5,1.5c0,4.703,3.782,8.387,8.611,8.387h5.055c4.909,0,8.61-3.51,8.61-8.165c0-0.829,0.672-1.5,1.501-1.5
			c0.828,0,1.5,0.671,1.5,1.5C45.984,47.323,40.883,52.227,34.373,52.227z"/>
		<path id="path-5_28_" d="M44.837,33.684c-0.038,0.001-0.072-0.001-0.108-0.003c-0.032,0.002-0.065,0.003-0.098,0.003
			c-2.212,0-8.163-7.474-8.163-10.253c0-3.163,2.574-5.737,5.737-5.737c1.05,0,1.878,0.607,2.524,1.186
			c0.647-0.579,1.475-1.186,2.525-1.186c3.163,0,5.737,2.574,5.737,5.737c0,1.735-1.78,4.31-3.274,6.163
			C46.449,33.651,45.282,33.684,44.837,33.684z M42.143,20.688c-1.447,0.006-2.675,1.234-2.675,2.743
			c0.046,1.247,3.688,5.925,5.261,7.125c1.573-1.2,5.215-5.878,5.262-7.128c0-1.506-1.228-2.734-2.737-2.734
			c-0.137,0.051-0.605,0.493-0.856,0.73c-0.271,0.255-0.532,0.496-0.773,0.675c-0.533,0.396-1.259,0.396-1.791,0
			c-0.242-0.179-0.502-0.42-0.774-0.675C42.809,21.186,42.341,20.745,42.143,20.688z"/>
		<path id="path-6_23_" d="M20.748,33.684c-0.036,0.001-0.072-0.001-0.108-0.003c-0.032,0.002-0.065,0.003-0.097,0.003
			c-2.213,0-8.164-7.474-8.164-10.253c0-3.163,2.574-5.737,5.737-5.737c1.05,0,1.878,0.607,2.524,1.186
			c0.647-0.578,1.475-1.186,2.525-1.186c3.163,0,5.737,2.574,5.737,5.737c0,1.735-1.78,4.31-3.274,6.163
			C22.36,33.651,21.193,33.684,20.748,33.684z M18.054,20.688c-1.447,0.006-2.675,1.234-2.675,2.743
			c0.046,1.247,3.688,5.925,5.261,7.125c1.574-1.2,5.216-5.878,5.262-7.128c0-1.506-1.228-2.734-2.737-2.734
			c-0.137,0.051-0.604,0.492-0.855,0.729c-0.272,0.256-0.533,0.497-0.775,0.676c-0.531,0.396-1.258,0.395-1.79,0
			c-0.241-0.179-0.502-0.42-0.774-0.675C18.72,21.186,18.253,20.745,18.054,20.688z"/>
		<path id="path-7_22_" d="M31.589,64.586C14.171,64.586,0,50.417,0,33C0,15.584,14.171,1.414,31.589,1.414S63.178,15.584,63.178,33
			C63.178,50.417,49.007,64.586,31.589,64.586z M31.589,4.414C15.825,4.414,3,17.238,3,33c0,15.763,12.825,28.586,28.589,28.586
			S60.178,48.763,60.178,33C60.178,17.238,47.353,4.414,31.589,4.414z"/>
	</g>
</g>
<g>
</g>
<g>
</g>
<g>
</g>
<g>
</g>
<g>
</g>
<g>
</g>
<g>
</g>
<g>
</g>
<g>
</g>
<g>
</g>
<g>
</g>
<g>
</g>
<g>
</g>
<g>
</g>
<g>
</g>
</svg>
