<?xml version="1.0" encoding="iso-8859-1"?>
<!-- Generator: Adobe Illustrator 19.1.0, SVG Export Plug-In . SVG Version: 6.00 Build 0)  -->
<svg version="1.1" id="Capa_1" xmlns="http://www.w3.org/2000/svg" xmlns:xlink="http://www.w3.org/1999/xlink" x="0px" y="0px"
	 viewBox="0 0 66.381 66.381" style="enable-background:new 0 0 66.381 66.381;" xml:space="preserve">
<g>
	<g id="group-31svg">
		<path id="path-1_23_" style="fill:#EDC951;" d="M66.381,35.351c0,16.616-13.473,30.086-30.09,30.086
			c-16.618,0-30.09-13.47-30.09-30.086S19.673,5.265,36.291,5.265C52.908,5.265,66.381,18.735,66.381,35.351z"/>
		<path id="path-2_23_" style="fill:#53ECF4;" d="M26.382,15.549c0.488,4.159-1.541,6.038-5.73,6.038
			c-4.188,0-6.001-1.891-5.421-6.038c0.618-4.416,5.421-9.437,5.421-9.437S25.892,11.364,26.382,15.549z"/>
		<path id="path-3_23_" d="M45.405,51.966c-0.828,0-1.5-0.671-1.5-1.499c0-4.71-3.863-8.541-8.611-8.541h-5.055
			c-4.829,0-8.611,3.721-8.611,8.472c0,0.828-0.672,1.5-1.5,1.5c-0.828,0-1.5-0.672-1.5-1.5c0-6.326,5.209-11.471,11.611-11.471
			h5.055c6.402,0,11.611,5.177,11.611,11.54C46.905,51.295,46.234,51.966,45.405,51.966z"/>
		<path id="path-4_23_" d="M15.95,20.266c-2.631,0-4.49-0.667-5.683-2.039c-1.156-1.328-1.567-3.248-1.223-5.706
			c0.678-4.84,5.612-10.047,5.822-10.266c0.28-0.292,0.664-0.459,1.069-0.464c0.39-0.008,0.792,0.155,1.078,0.441
			c0.573,0.575,5.621,5.752,6.158,10.321c0.281,2.4-0.176,4.291-1.359,5.621C20.576,19.562,18.605,20.266,15.95,20.266z
			 M15.982,5.538c-1.359,1.653-3.592,4.718-3.967,7.398c-0.218,1.561-0.045,2.678,0.514,3.322c0.583,0.669,1.734,1.009,3.421,1.009
			c1.761,0,2.979-0.366,3.62-1.086c0.589-0.663,0.798-1.766,0.621-3.278C19.912,10.53,17.605,7.412,15.982,5.538z"/>
		<path id="path-5_23_" d="M31.589,64.116C14.171,64.116,0,49.947,0,32.53c0-8.667,3.441-16.751,9.688-22.762
			c0.596-0.574,1.546-0.556,2.121,0.041c0.574,0.597,0.555,1.547-0.041,2.121C6.113,17.37,3,24.686,3,32.53
			c0,15.763,12.825,28.586,28.589,28.586c15.765,0,28.59-12.823,28.59-28.586c0-15.762-12.825-28.586-28.59-28.586
			c-4.31,0-8.451,0.935-12.31,2.778c-0.745,0.357-1.642,0.04-2-0.707c-0.357-0.747-0.041-1.643,0.707-2
			c4.266-2.037,8.842-3.07,13.603-3.07c17.419,0,31.59,14.169,31.59,31.585C63.179,49.947,49.008,64.116,31.589,64.116z"/>
		<path id="path-6_18_" d="M44.381,32.279c-3.593,0-6.629-3.108-6.629-6.785c0-0.829,0.672-1.5,1.5-1.5c0.828,0,1.5,0.671,1.5,1.5
			c0,2.052,1.662,3.785,3.629,3.785c0.828,0,1.5,0.672,1.5,1.5C45.881,31.608,45.209,32.279,44.381,32.279z"/>
		<path id="path-7_17_" d="M18.465,32.201c-0.828,0-1.5-0.671-1.5-1.5c0-0.829,0.672-1.5,1.5-1.5c2.053,0,3.786-1.662,3.786-3.629
			c0-0.828,0.672-1.5,1.5-1.5c0.828,0,1.5,0.672,1.5,1.5C25.251,29.165,22.144,32.201,18.465,32.201z"/>
	</g>
</g>
<g>
</g>
<g>
</g>
<g>
</g>
<g>
</g>
<g>
</g>
<g>
</g>
<g>
</g>
<g>
</g>
<g>
</g>
<g>
</g>
<g>
</g>
<g>
</g>
<g>
</g>
<g>
</g>
<g>
</g>
</svg>
